<?xml version="1.0" encoding="utf-8"?>
<!-- Generator: Adobe Illustrator 19.0.0, SVG Export Plug-In . SVG Version: 6.00 Build 0)  -->
<svg version="1.1" id="Layer_1" xmlns="http://www.w3.org/2000/svg" xmlns:xlink="http://www.w3.org/1999/xlink" x="0px" y="0px"
	 viewBox="0 0 518 486.9" style="enable-background:new 0 0 518 486.9;" xml:space="preserve">
<style type="text/css">
	.st0{fill:none;stroke:#000000;stroke-width:5;stroke-miterlimit:10;}
	.st1{fill:#262D40;}
	.st2{fill:none;stroke:#000000;stroke-width:3;stroke-miterlimit:10;}
	.st3{fill:#2C385B;}
	.st4{fill:#FFFFFF;}
	.st5{fill:#425168;}
	.st6{fill:#EAE8E8;}
	.st7{fill:#D8D6D6;}
	.st8{fill:none;stroke:#262D40;stroke-width:3;stroke-miterlimit:10;}
	.st9{fill:none;}
	.st10{fill:#F2881D;}
	.st11{fill:#F45F14;}
</style>
<g id="XMLID_1_">
	<line id="XMLID_29_" class="st0" x1="446.1" y1="205.4" x2="430" y2="189.3"/>
	<line id="XMLID_28_" class="st0" x1="481.8" y1="196.5" x2="452.4" y2="167.1"/>
	<path id="XMLID_33_" class="st1" d="M515.4,192.5L477,154c-3.4-3.4-9-3.4-12.5,0L430,188.4l-16.9,16.9l-0.1-0.1l-13.2,13.2v102
		l64.2-64.2l51.4-51.4C518.9,201.5,518.9,195.9,515.4,192.5z M502.4,204.2c-3,0-5.4-2.4-5.4-5.4c0-3,2.4-5.4,5.4-5.4
		c3,0,5.4,2.4,5.4,5.4C507.7,201.8,505.3,204.2,502.4,204.2z"/>
	<line id="XMLID_30_" class="st2" x1="435.3" y1="243" x2="405.9" y2="213.6"/>
	<line id="XMLID_27_" class="st2" x1="446.1" y1="205.4" x2="430" y2="189.3"/>
	<line id="XMLID_26_" class="st2" x1="481.8" y1="196.5" x2="452.4" y2="167.1"/>
	<path id="XMLID_46_" class="st1" d="M260,265.4l-20.5,20.5l-19.7,19.7c-3.5,3.5-9.1,3.5-12.5,0L48.9,147.1L30.7,77.8
		c-0.3-1,0.6-1.7,1.6-1.6l69.3,18.2L260,252.9C263.4,256.3,263.4,261.9,260,265.4z"/>
	<line id="XMLID_41_" class="st1" x1="232" y1="223.9" x2="179.3" y2="276.6"/>
	<polygon id="XMLID_35_" class="st3" points="194.4,262.4 73,140.9 71.3,116.8 71.3,116.8 97.1,116.8 218.5,238.3 	"/>
	<path id="XMLID_39_" class="st1" d="M101.5,94.4"/>
	<path id="XMLID_38_" class="st1" d="M96.2,117.7"/>
	<path id="XMLID_36_" class="st4" d="M57.7,82.9l43.9,11.5l-4.4,22.4H71.3l1.7,24.1l-24.1,6.2l-11.5-43.6
		C57,101.2,57.7,82.9,57.7,82.9z"/>
	<g id="XMLID_6_">
		<polygon id="XMLID_25_" class="st5" points="339.6,0 111,0 111,421.9 420.6,421.9 420.6,81 		"/>
		<polygon id="XMLID_22_" class="st5" points="420.6,81 339.6,81 339.6,0 		"/>
		<polygon id="XMLID_21_" class="st5" points="420.8,162.1 339.6,81 420.6,81 		"/>
	</g>
	<g id="XMLID_4_">
		<polygon id="XMLID_5_" class="st6" points="332.1,7.5 103.5,7.5 103.5,429.4 413.1,429.4 413.1,88.5 		"/>
		<polygon id="XMLID_3_" class="st4" points="413.1,88.5 332.1,88.5 332.1,7.5 		"/>
		<polygon id="XMLID_2_" class="st7" points="413.2,169.7 332.1,88.5 413.1,88.5 		"/>
	</g>
	<path id="XMLID_19_" class="st8" d="M306,197l7.2-7.2c31.2,38.2,31.2,93.4,0,131.6l-7.2-7.2l-15.1,15.1l7.2,7.2
		c-38.2,31.2-93.4,31.2-131.6,0l7.2-7.2l-15.1-15.1l-7.2,7.2c-31.2-38.2-31.2-93.4,0-131.6l7.2,7.2l15.1-15.1l-7.2-7.2
		c38.2-31.2,93.4-31.2,131.6,0l-7.2,7.2L306,197z"/>
	
		<rect id="XMLID_17_" x="147.9" y="171.3" transform="matrix(-0.7071 -0.7071 0.7071 -0.7071 141.9635 422.7069)" class="st8" width="21.3" height="21.3"/>
	
		<rect id="XMLID_18_" x="295.3" y="318.7" transform="matrix(-0.7071 -0.7071 0.7071 -0.7071 289.4126 778.6806)" class="st8" width="21.3" height="21.3"/>
	
		<rect id="XMLID_16_" x="295.3" y="171.3" transform="matrix(-0.7071 -0.7071 0.7071 -0.7071 393.6749 526.9692)" class="st1" width="21.3" height="21.3"/>
	
		<rect id="XMLID_15_" x="147.9" y="318.7" transform="matrix(-0.7071 -0.7071 0.7071 -0.7071 37.7012 674.4184)" class="st9" width="21.3" height="21.3"/>
	<polyline id="XMLID_14_" class="st8" points="372.2,248.1 372.2,248.1 313.5,189.5 	"/>
	<polyline id="XMLID_13_" class="st8" points="298.4,174.4 239.8,115.8 239.8,115.8 	"/>
	
		<rect id="XMLID_12_" x="221.6" y="97.6" transform="matrix(-0.7071 -0.7071 0.7071 -0.7071 319.9503 348.9823)" class="st1" width="21.3" height="21.3"/>
	
		<rect id="XMLID_9_" x="369" y="245" transform="matrix(-0.7071 -0.7071 0.7071 -0.7071 467.3995 704.9561)" class="st1" width="21.3" height="21.3"/>
	<g id="XMLID_20_">
		<polygon id="XMLID_11_" class="st10" points="123.3,309.9 118.5,310.6 146,338 147.4,339.5 148.9,341 176.4,368.4 177,363.7 		"/>
		<path id="XMLID_10_" class="st1" d="M184.3,293.1c0.8-0.8,2.3-0.8,3.9-0.1l39.6-39.6l-13.8-13.8c0,0-32.5,22.5-77.9,32.5
			c0,0-0.1,24.9-11.1,36.9l52.9,52.9c12-11,36.9-11.1,36.9-11.1c10-45.4,32.5-77.9,32.5-77.9l-13.8-13.8l-39.6,39.6
			c0.7,1.6,0.7,3.1-0.1,3.9c-1.4,1.4-4.6,0.4-7.3-2.2C183.9,297.7,183,294.5,184.3,293.1z"/>
		<path id="XMLID_8_" class="st11" d="M176.4,368.4L25.1,485.7c-3.8,2.9-11.6,0.3-17.9-6h0l0,0c-6.3-6.3-8.9-14.1-6-17.9
			l117.3-151.3L176.4,368.4z"/>
		<path id="XMLID_7_" class="st10" d="M126.2,318.2l-104.7,135c-0.4,0.5-1.3,0.2-2.1-0.6h0c-0.7-0.7-1-1.6-0.7-2l104.8-135.1
			L126.2,318.2z"/>
	</g>
</g>
</svg>
