<?xml version="1.0" encoding="utf-8"?>
<!-- Generator: Adobe Illustrator 19.0.0, SVG Export Plug-In . SVG Version: 6.00 Build 0)  -->
<svg version="1.1" id="Layer_1" xmlns="http://www.w3.org/2000/svg" xmlns:xlink="http://www.w3.org/1999/xlink" x="0px" y="0px"
	 viewBox="0 0 960 560" style="enable-background:new 0 0 960 560;" xml:space="preserve">
<style type="text/css">
	.st0{fill:#243B55;}
	.st1{fill:#FFFFFF;}
	.st2{fill:#304B69;}
	.st3{fill:#E2EEFA;}
	.st4{fill:none;stroke:#243B55;stroke-width:3;stroke-miterlimit:10;}
	.st5{fill:#B9D1E7;}
	.st6{fill:#D0DF70;}
	.st7{fill:none;stroke:#565656;stroke-width:2;stroke-miterlimit:10;stroke-dasharray:5.015,5.015;}
	.st8{fill:#FF8E30;}
	.st9{fill:none;stroke:#565656;stroke-width:2;stroke-miterlimit:10;}
	.st10{fill:none;stroke:#565656;stroke-width:4;stroke-miterlimit:10;}
	.st11{fill:none;stroke:#565656;stroke-width:3;stroke-miterlimit:10;}
</style>
<g id="XMLID_52_">
	<path id="XMLID_58_" class="st0" d="M598.6,482.5H396.8c-5.5,0-10-4.5-10-10V106.7c0-5.5,4.5-10,10-10h201.8c5.5,0,10,4.5,10,10
		v365.8C608.6,478,604.1,482.5,598.6,482.5z"/>
	<path id="XMLID_57_" class="st1" d="M584.5,111h-60.2c-2,0-3.8,1-4.9,2.7l-1.5,2.4c-1.1,1.7-2.9,2.7-4.9,2.7h-14.4h-1.9h-14.4
		c-2,0-3.8-1-4.9-2.7l-1.5-2.4c-1.1-1.7-2.9-2.7-4.9-2.7h-60.2c-7.4,0-13.5,6.1-13.5,13.5v329.8c0,7.5,6,13.5,13.5,13.5h173.6
		c7.4,0,13.5-6.1,13.5-13.5V124.5C598,117.1,591.9,111,584.5,111z"/>
	<g id="XMLID_53_">
		<path id="XMLID_56_" class="st2" d="M501.2,114.4h-15c-0.5,0-0.9-0.4-0.9-0.9v-1.6c0-0.5,0.4-0.9,0.9-0.9h15
			c0.5,0,0.9,0.4,0.9,0.9v1.6C502,114,501.6,114.4,501.2,114.4z"/>
		<circle id="XMLID_55_" class="st2" cx="509.5" cy="112.7" r="1.7"/>
		<circle id="XMLID_54_" class="st0" cx="509.5" cy="112.7" r="0.6"/>
	</g>
</g>
<path id="XMLID_49_" class="st1" d="M578.9,117.8h-56.3c-1.8,0-3.6,1-4.6,2.6l-1.4,2.3c-1,1.6-2.7,2.6-4.6,2.6h-13.5h-1.8h-13.5
	c-1.8,0-3.6-1-4.6-2.6l-1.4-2.3c-1-1.6-2.7-2.6-4.6-2.6h-56.3c-6.9,0-12.6,5.8-12.6,13v317.3c0,7.2,5.7,13,12.6,13h162.5
	c6.9,0,12.6-5.8,12.6-13V130.7C591.5,123.6,585.9,117.8,578.9,117.8z"/>
<rect id="XMLID_48_" x="403.8" y="422.8" class="st3" width="187.7" height="19.3"/>
<path id="XMLID_47_" class="st4" d="M616.5,148v-43.1c0-10.7-5.2-18.4-15.8-18.4H558"/>
<path id="XMLID_46_" class="st0" d="M511.7,77.5"/>
<rect id="XMLID_45_" x="510.9" y="148.8" class="st5" width="80.6" height="102.9"/>
<rect id="XMLID_44_" x="332.4" y="148.8" class="st6" width="148.2" height="102.9"/>
<g id="XMLID_43_">
	<path id="XMLID_8_" class="st7" d="M518.3,384.6H410.8c-3.9,0-7-3.1-7-7v-81.2c0-3.9,3.1-7,7-7h107.5c3.9,0,7,3.1,7,7v81.2
		C525.3,381.4,522.2,384.6,518.3,384.6z"/>
</g>
<rect id="XMLID_42_" x="546.5" y="315.5" class="st8" width="90" height="69.1"/>
<line id="XMLID_40_" class="st9" x1="299" y1="300" x2="373" y2="300"/>
<line id="XMLID_39_" class="st10" x1="299" y1="321" x2="373" y2="321"/>
<line id="XMLID_38_" class="st11" x1="299" y1="339.5" x2="373" y2="339.5"/>
<line id="XMLID_37_" class="st9" x1="299" y1="361" x2="373" y2="361"/>
<line id="XMLID_36_" class="st11" x1="299" y1="381.5" x2="373" y2="381.5"/>
<line id="XMLID_30_" class="st10" x1="299" y1="398" x2="373" y2="398"/>
<polygon id="XMLID_27_" class="st0" points="625.9,409 624.8,367.8 661,387.7 "/>
<line id="XMLID_26_" class="st4" x1="643.9" y1="398.1" x2="653.9" y2="414.6"/>
<line id="XMLID_18_" class="st9" x1="299" y1="417" x2="373" y2="417"/>
</svg>
