<?xml version="1.0" encoding="utf-8"?>
<!-- Generator: Adobe Illustrator 19.0.0, SVG Export Plug-In . SVG Version: 6.00 Build 0)  -->
<svg version="1.1" id="Layer_1" xmlns="http://www.w3.org/2000/svg" xmlns:xlink="http://www.w3.org/1999/xlink" x="0px" y="0px"
	 viewBox="0 0 541.3 405.9" style="enable-background:new 0 0 541.3 405.9;" xml:space="preserve">
<style type="text/css">
	.st0{fill:#E1EFFA;}
	.st1{fill:#243B55;}
	.st2{fill:#FFFFFF;}
	.st3{fill:#F3FAFF;}
	.st4{fill:#FF8E30;}
	.st5{fill:#B9D1E7;}
	.st6{fill:#D0DF70;}
	.st7{fill:#E2EEFA;}
	.st8{fill:#304B69;}
</style>
<g id="XMLID_1_">
	<polygon id="XMLID_9_" class="st0" points="259.4,263.7 232.5,264 205.6,263.7 182,333 232.5,333 282.9,333 	"/>
	<g id="XMLID_7_">
		<path id="XMLID_3_" class="st1" d="M459.9,265.7H5c-2.8,0-5-2.2-5-5V5c0-2.8,2.2-5,5-5h454.9c2.8,0,5,2.2,5,5v255.7
			C464.9,263.4,462.7,265.7,459.9,265.7z"/>
		<rect id="XMLID_4_" x="13" y="13.8" class="st2" width="438.9" height="238"/>
	</g>
	<polygon id="XMLID_11_" class="st3" points="232.5,332 153,332 153,341 232.5,341 313,341 313,332 	"/>
	<g id="XMLID_33_">
		<rect id="XMLID_5_" x="21.5" y="18.7" class="st2" width="421.9" height="228.2"/>
		<rect id="XMLID_8_" x="21.6" y="18.6" class="st4" width="73.1" height="19.9"/>
		<rect id="XMLID_10_" x="111" y="18.6" class="st0" width="332.1" height="19.9"/>
		<rect id="XMLID_12_" x="21.5" y="49.2" class="st5" width="421.6" height="48.6"/>
		<rect id="XMLID_14_" x="21.6" y="109.6" class="st6" width="126.2" height="73.1"/>
		<rect id="XMLID_15_" x="169.4" y="109.6" class="st6" width="126.2" height="73.1"/>
		<rect id="XMLID_16_" x="317.2" y="109.6" class="st6" width="126.2" height="73.1"/>
		<rect id="XMLID_17_" x="21.5" y="189.3" class="st7" width="421.6" height="13.3"/>
		<rect id="XMLID_18_" x="21.5" y="209.2" class="st7" width="421.6" height="13.3"/>
		<rect id="XMLID_19_" x="21.5" y="229.1" class="st7" width="421.6" height="13.3"/>
	</g>
	<g id="XMLID_2_">
		<g id="XMLID_26_">
			<path id="XMLID_32_" class="st1" d="M531.3,405.9H398.5c-5.5,0-10-4.5-10-10V150.3c0-5.5,4.5-10,10-10h132.8c5.5,0,10,4.5,10,10
				v245.7C541.3,401.5,536.8,405.9,531.3,405.9z"/>
			<path id="XMLID_31_" class="st2" d="M524.7,150.1h-41.4c-1.4,0-2.6,0.7-3.4,1.8l-1.1,1.6c-0.7,1.1-2,1.8-3.4,1.8h-9.9h-1.3h-9.9
				c-1.4,0-2.6-0.7-3.4-1.8l-1.1-1.6c-0.7-1.1-2-1.8-3.4-1.8h-41.4c-5.1,0-9.3,4.2-9.3,9.3v227.1c0,5.1,4.2,9.3,9.3,9.3h119.6
				c5.1,0,9.3-4.2,9.3-9.3V159.4C534,154.3,529.8,150.1,524.7,150.1z"/>
			<g id="XMLID_27_">
				<path id="XMLID_30_" class="st8" d="M467,152.4h-9.8c-0.5,0-0.9-0.4-0.9-0.9V151c0-0.5,0.4-0.9,0.9-0.9h9.8
					c0.5,0,0.9,0.4,0.9,0.9v0.6C467.9,152,467.5,152.4,467,152.4z"/>
				<circle id="XMLID_29_" class="st8" cx="472.9" cy="151.5" r="1.2"/>
				<circle id="XMLID_28_" class="st1" cx="472.9" cy="151.5" r="0.4"/>
			</g>
		</g>
		<path id="XMLID_25_" class="st2" d="M520.9,154.8h-38.8c-1.3,0-2.5,0.7-3.1,1.8l-1,1.6c-0.7,1.1-1.9,1.8-3.1,1.8h-9.3h-1.2H455
			c-1.3,0-2.5-0.7-3.1-1.8l-1-1.6c-0.7-1.1-1.9-1.8-3.1-1.8H409c-4.8,0-8.7,4-8.7,8.9v218.6c0,4.9,3.9,8.9,8.7,8.9h111.9
			c4.8,0,8.7-4,8.7-8.9V163.7C529.6,158.8,525.6,154.8,520.9,154.8z"/>
		<rect id="XMLID_24_" x="400.3" y="163.1" class="st4" width="129.3" height="18.9"/>
		<rect id="XMLID_23_" x="400.3" y="188.6" class="st5" width="129.3" height="32.9"/>
		<rect id="XMLID_22_" x="400.3" y="228.2" class="st6" width="129.3" height="84.3"/>
		<rect id="XMLID_21_" x="400.3" y="319.2" class="st7" width="129.3" height="13.3"/>
		<rect id="XMLID_20_" x="400.3" y="339.1" class="st7" width="129.3" height="13.3"/>
		<rect id="XMLID_6_" x="400.3" y="359" class="st7" width="129.3" height="13.3"/>
	</g>
</g>
</svg>
