<?xml version="1.0" encoding="utf-8"?>
<!-- Generator: Adobe Illustrator 19.0.0, SVG Export Plug-In . SVG Version: 6.00 Build 0)  -->
<svg version="1.1" id="Layer_1" xmlns="http://www.w3.org/2000/svg" xmlns:xlink="http://www.w3.org/1999/xlink" x="0px" y="0px"
	 viewBox="0 0 779 501" style="enable-background:new 0 0 779 501;" xml:space="preserve">
<style type="text/css">
	.st0{display:none;fill:#5DC8DD;}
	.st1{display:none;fill:#37BA99;}
	.st2{display:none;fill:#EFC01A;}
	.st3{display:none;fill:#F16D6E;}
	.st4{fill:#313D41;stroke:#363838;stroke-miterlimit:10;}
	.st5{fill:#FFFFFF;stroke:#363838;stroke-miterlimit:10;}
	.st6{fill:#313D41;stroke:#313D41;stroke-miterlimit:10;}
	.st7{fill:#FFFFFF;stroke:#313D41;stroke-miterlimit:10;}
	.st8{fill:#445358;}
	.st9{fill:#EFC01A;}
	.st10{fill:#F16D6E;}
	.st11{fill:#37BA99;}
	.st12{fill:#5DC8DD;}
</style>
<path id="XMLID_22_" class="st0" d="M-121.9-44.4h-36.5c-6.6,0-12-5.4-12-12v-10.3c0-6.6,5.4-12,12-12h36.5c6.6,0,12,5.4,12,12v10.3
	C-109.9-49.8-115.3-44.4-121.9-44.4z"/>
<path id="XMLID_21_" class="st1" d="M-100.1,48.3h-58.3c-6.6,0-12-5.4-12-12v-8.7c0-6.6,5.4-12,12-12h58.3c6.6,0,12,5.4,12,12v8.7
	C-88.1,42.9-93.5,48.3-100.1,48.3z"/>
<path id="XMLID_20_" class="st2" d="M-74.8,4.4h-83.5c-6.6,0-12-5.4-12-12v-14c0-6.6,5.4-12,12-12h83.5c6.6,0,12,5.4,12,12v14
	C-62.8-1-68.2,4.4-74.8,4.4z"/>
<path id="XMLID_19_" class="st3" d="M-95,81.4h-63.4c-6.6,0-12-5.4-12-12v-1c0-6.6,5.4-12,12-12H-95c6.6,0,12,5.4,12,12v1
	C-83,76-88.4,81.4-95,81.4z"/>
<path id="XMLID_4_" class="st4" d="M0.5,489.5c0,5.5,5.5,11,11,11h758c5.5,0,9-5.5,9-11v-458H0.5V489.5z"/>
<path id="XMLID_5_" class="st5" d="M759.5,0.5h-738c-11,0-21,8-21,19v12h778v-12C778.5,8.5,770.5,0.5,759.5,0.5z"/>
<circle id="XMLID_2_" class="st6" cx="743.5" cy="15.5" r="9"/>
<circle id="XMLID_3_" class="st7" cx="717.5" cy="15.5" r="9"/>
<circle id="XMLID_6_" class="st7" cx="691.5" cy="15.5" r="9"/>
<circle id="XMLID_1_" class="st8" cx="27.5" cy="64.5" r="5.5"/>
<circle id="XMLID_7_" class="st8" cx="27.5" cy="94.5" r="5.5"/>
<circle id="XMLID_8_" class="st8" cx="27.5" cy="124.5" r="5.5"/>
<circle id="XMLID_9_" class="st8" cx="27.5" cy="154.5" r="5.5"/>
<circle id="XMLID_10_" class="st8" cx="27.5" cy="184.5" r="5.5"/>
<circle id="XMLID_11_" class="st8" cx="27.5" cy="214.5" r="5.5"/>
<circle id="XMLID_12_" class="st8" cx="27.5" cy="242.5" r="5.5"/>
<circle id="XMLID_13_" class="st8" cx="27.5" cy="272.5" r="5.5"/>
<circle id="XMLID_14_" class="st8" cx="27.5" cy="300.5" r="5.5"/>
<circle id="XMLID_15_" class="st8" cx="27.5" cy="330.5" r="5.5"/>
<path id="XMLID_16_" class="st9" d="M141.5,71.5H63.8c-3.8,0-7-3.1-7-7v0c0-3.8,3.1-7,7-7h77.7c3.9,0,7,3.1,7,7v0
	C148.5,68.4,145.4,71.5,141.5,71.5z"/>
<path id="XMLID_17_" class="st10" d="M104.2,101.5H63.8c-3.8,0-7-3.1-7-7v0c0-3.8,3.1-7,7-7h40.3c3.8,0,7,3.1,7,7v0
	C111.2,98.4,108,101.5,104.2,101.5z"/>
<path id="XMLID_18_" class="st11" d="M123.5,131.5H63.8c-3.8,0-7-3.1-7-7v0c0-3.8,3.1-7,7-7h59.7c3.8,0,7,3.1,7,7v0
	C130.5,128.4,127.4,131.5,123.5,131.5z"/>
<path id="XMLID_23_" class="st12" d="M77,161.5H63.8c-3.8,0-7-3.1-7-7v0c0-3.8,3.1-7,7-7H77c3.8,0,7,3.1,7,7v0
	C84,158.4,80.9,161.5,77,161.5z"/>
<path id="XMLID_24_" class="st11" d="M136.5,191.5H63.8c-3.8,0-7-3.1-7-7l0,0c0-3.9,3.1-7,7-7h72.7c3.9,0,7,3.1,7,7l0,0
	C143.5,188.4,140.4,191.5,136.5,191.5z"/>
<path id="XMLID_25_" class="st10" d="M113.5,221.5H63.8c-3.8,0-7-3.1-7-7v0c0-3.8,3.1-7,7-7h49.7c3.8,0,7,3.1,7,7v0
	C120.5,218.4,117.4,221.5,113.5,221.5z"/>
<path id="XMLID_26_" class="st12" d="M158.5,249.5H63.8c-3.8,0-7-3.1-7-7l0,0c0-3.9,3.1-7,7-7h94.7c3.9,0,7,3.1,7,7l0,0
	C165.5,246.4,162.4,249.5,158.5,249.5z"/>
<path id="XMLID_27_" class="st9" d="M136.5,279.5H63.8c-3.8,0-7-3.1-7-7l0,0c0-3.9,3.1-7,7-7h72.7c3.9,0,7,3.1,7,7l0,0
	C143.5,276.4,140.4,279.5,136.5,279.5z"/>
<path id="XMLID_28_" class="st10" d="M175.5,307.5H63.8c-3.8,0-7-3.1-7-7l0,0c0-3.9,3.1-7,7-7h111.7c3.9,0,7,3.1,7,7l0,0
	C182.5,304.4,179.4,307.5,175.5,307.5z"/>
<path id="XMLID_29_" class="st12" d="M123.5,337.5H63.8c-3.8,0-7-3.1-7-7l0,0c0-3.9,3.1-7,7-7h59.7c3.8,0,7,3.1,7,7l0,0
	C130.5,334.4,127.4,337.5,123.5,337.5z"/>
<path id="XMLID_30_" class="st11" d="M203.7,71.5h-41.2c-3.8,0-7-3.1-7-7v0c0-3.8,3.1-7,7-7h41.2c3.8,0,7,3.1,7,7v0
	C210.7,68.4,207.5,71.5,203.7,71.5z"/>
<path id="XMLID_31_" class="st12" d="M256.8,71.5h-32.2c-3.9,0-7-3.1-7-7v0c0-3.8,3.1-7,7-7h32.2c3.9,0,7,3.1,7,7v0
	C263.8,68.4,260.7,71.5,256.8,71.5z"/>
<path id="XMLID_32_" class="st9" d="M330,71.5h-52.2c-3.9,0-7-3.1-7-7v0c0-3.8,3.1-7,7-7H330c3.8,0,7,3.1,7,7v0
	C337,68.4,333.9,71.5,330,71.5z"/>
<path id="XMLID_33_" class="st12" d="M179.5,101.5h-54.3c-3.8,0-7-3.2-7-7v0c0-3.8,3.1-7,7-7h54.3c3.9,0,7,3.1,7,7v0
	C186.5,98.3,183.4,101.5,179.5,101.5z"/>
<path id="XMLID_34_" class="st11" d="M278.5,101.5h-78c-3.8,0-7-3.2-7-7v0c0-3.8,3.1-7,7-7h78c3.9,0,7,3.1,7,7v0
	C285.5,98.3,282.4,101.5,278.5,101.5z"/>
<path id="XMLID_35_" class="st10" d="M213,131.5h-68.5c-3.8,0-7-3.1-7-7v0c0-3.8,3.1-7,7-7H213c3.9,0,7,3.1,7,7v0
	C220,128.4,216.9,131.5,213,131.5z"/>
<path id="XMLID_36_" class="st9" d="M269,131.5h-35c-3.9,0-7-3.1-7-7v0c0-3.8,3.1-7,7-7h35c3.9,0,7,3.1,7,7v0
	C276,128.4,272.9,131.5,269,131.5z"/>
<path id="XMLID_37_" class="st9" d="M152.5,161.5H98c-3.8,0-7-3.1-7-7l0,0c0-3.9,3.1-7,7-7h54.5c3.9,0,7,3.1,7,7l0,0
	C159.5,158.4,156.4,161.5,152.5,161.5z"/>
<path id="XMLID_38_" class="st11" d="M236.5,161.5h-63c-3.8,0-7-3.1-7-7v0c0-3.8,3.1-7,7-7h63c3.9,0,7,3.1,7,7l0,0
	C243.5,158.4,240.4,161.5,236.5,161.5z"/>
<path id="XMLID_39_" class="st10" d="M303.2,161.5h-45.7c-3.8,0-7-3.1-7-7v0c0-3.8,3.1-7,7-7h45.7c3.8,0,7,3.1,7,7l0,0
	C310.2,158.4,307,161.5,303.2,161.5z"/>
<path id="XMLID_40_" class="st12" d="M380.8,161.5h-56.7c-3.9,0-7-3.1-7-7v0c0-3.8,3.1-7,7-7h56.7c3.9,0,7,3.1,7,7l0,0
	C387.8,158.4,384.7,161.5,380.8,161.5z"/>
<path id="XMLID_41_" class="st12" d="M252.5,191.5h-95.3c-3.8,0-7-3.1-7-7l0,0c0-3.9,3.1-7,7-7h95.3c3.9,0,7,3.1,7,7l0,0
	C259.5,188.4,256.4,191.5,252.5,191.5z"/>
<path id="XMLID_42_" class="st9" d="M318.5,191.5h-45c-3.8,0-7-3.1-7-7l0,0c0-3.9,3.1-7,7-7h45c3.9,0,7,3.1,7,7l0,0
	C325.5,188.4,322.4,191.5,318.5,191.5z"/>
<path id="XMLID_43_" class="st9" d="M162.5,221.5h-28c-3.9,0-7-3.1-7-7v0c0-3.8,3.1-7,7-7h28c3.9,0,7,3.1,7,7v0
	C169.5,218.4,166.4,221.5,162.5,221.5z"/>
<path id="XMLID_44_" class="st11" d="M232.5,221.5h-49c-3.8,0-7-3.1-7-7v0c0-3.8,3.1-7,7-7h49c3.8,0,7,3.1,7,7v0
	C239.5,218.4,236.4,221.5,232.5,221.5z"/>
<path id="XMLID_45_" class="st10" d="M319.8,221.5h-66.3c-3.9,0-7-3.1-7-7v0c0-3.8,3.1-7,7-7h66.3c3.9,0,7,3.1,7,7v0
	C326.8,218.4,323.7,221.5,319.8,221.5z"/>
<path id="XMLID_46_" class="st9" d="M244.5,249.5h-65c-3.8,0-7-3.1-7-7v0c0-3.8,3.1-7,7-7h65c3.8,0,7,3.1,7,7v0
	C251.5,246.4,248.4,249.5,244.5,249.5z"/>
<path id="XMLID_47_" class="st11" d="M271.8,307.5h-75.2c-3.8,0-7-3.1-7-7l0,0c0-3.9,3.1-7,7-7h75.2c3.9,0,7,3.1,7,7l0,0
	C278.8,304.4,275.6,307.5,271.8,307.5z"/>
<path id="XMLID_48_" class="st9" d="M306.5,307.5h-13.7c-3.8,0-7-3.1-7-7l0,0c0-3.9,3.1-7,7-7h13.7c3.9,0,7,3.1,7,7l0,0
	C313.5,304.4,310.4,307.5,306.5,307.5z"/>
<path id="XMLID_49_" class="st12" d="M356,307.5h-28.5c-3.8,0-7-3.1-7-7l0,0c0-3.9,3.2-7,7-7H356c3.9,0,7,3.1,7,7l0,0
	C363,304.4,359.9,307.5,356,307.5z"/>
<path id="XMLID_50_" class="st9" d="M204.2,337.5h-59.7c-3.8,0-7-3.1-7-7l0,0c0-3.9,3.1-7,7-7h59.7c3.8,0,7,3.1,7,7l0,0
	C211.2,334.4,208,337.5,204.2,337.5z"/>
<path id="XMLID_51_" class="st10" d="M284.8,337.5h-59.7c-3.9,0-7-3.1-7-7l0,0c0-3.9,3.1-7,7-7h59.7c3.8,0,7,3.1,7,7l0,0
	C291.8,334.4,288.7,337.5,284.8,337.5z"/>
</svg>
