<?xml version="1.0" encoding="utf-8"?>
<!-- Generator: Adobe Illustrator 19.0.0, SVG Export Plug-In . SVG Version: 6.00 Build 0)  -->
<svg version="1.1" id="Layer_1" xmlns="http://www.w3.org/2000/svg" xmlns:xlink="http://www.w3.org/1999/xlink" x="0px" y="0px"
	 viewBox="0 0 960 560" style="enable-background:new 0 0 960 560;" xml:space="preserve">
<style type="text/css">
	.st0{fill:#ECD6B1;}
	.st1{fill:#FF4836;}
	.st2{opacity:0.5;fill:#FFFFFF;}
	.st3{fill:#1697C1;}
	.st4{fill:#FFF700;}
	.st5{fill:#FCB10D;}
	.st6{fill:#435078;}
	.st7{fill:#02B88D;}
	.st8{fill:#947863;}
	.st9{fill:#E2E1E7;}
	.st10{opacity:0.3;fill:#FFFFFF;}
	.st11{fill:#FFFFFF;}
	.st12{fill:#D69934;}
	.st13{fill:#FFED93;}
	.st14{fill:#E2E2E7;}
	.st15{fill:#37362F;}
	.st16{opacity:0.3;}
</style>
<g id="XMLID_1_">
	<path id="XMLID_121_" class="st0" d="M576.1,204.9c-0.3-0.2-0.5-0.4-0.8-0.6c-2.8-2.3-5.7-4.5-8.5-6.5c-1.2-0.8-2.3-1.7-3.5-2.4
		c-14.7-9.9-29.1-16.1-43.2-19.4c-2.6-0.6-5.2-1.1-7.7-1.5c-0.8-0.1-1.6-0.3-2.4-0.4c-0.1,0-0.2,0-0.3,0
		c-80.7-11.1-146.6,69.7-159.4,86.4c-1.5,2-2.8,4.2-3.6,6.6c-9.8,27.8,7.1,41.8,20.2,49.1c6.4,3.6,26.9,1.2,33.3-2.4
		c81.6-45.7,64.5,19.3,67.7,39.9c1.2,7.9,10.9,14.2,20.2,17.6l8.1-20.1c-1.2-0.7-2.3-1.6-3.2-2.8c-5.3-6.6-2.5-17.7,6.2-24.7
		c2.7-2.1,5.6-3.7,8.6-4.5c0.5-0.1,1-0.3,1.4-0.4c3.3-0.8,6.5-0.7,9.3,0.2c2.4,0.8,4.6,2.1,6.1,4.1c0,0.1,0.1,0.1,0.1,0.2
		c5.1,6.7,2.3,17.6-6.4,24.5c-0.2,0.2-0.5,0.4-0.7,0.5l-0.7,25.4C579.9,364.9,669.1,281.4,576.1,204.9z M500.1,374.1
		c2.7,0.3,5.6,0.4,8.6,0.3l-0.2-17.4L500.1,374.1z"/>
	<g id="XMLID_102_">
		<g id="XMLID_118_">
			<circle id="XMLID_120_" class="st1" cx="381.6" cy="273.5" r="13.5"/>
			<path id="XMLID_119_" class="st2" d="M379.3,261.8c-0.1,0-0.2,0-0.3,0c-0.1,0.1-0.3,0.1-0.4,0.2c-0.3,0.1-0.6,0.2-0.9,0.4
				c-0.3,0.2-0.7,0.3-1,0.5c-0.4,0.2-0.7,0.4-1.1,0.6c-0.4,0.2-0.8,0.5-1.1,0.8c-0.4,0.3-0.7,0.6-1.1,0.9c-0.4,0.3-0.7,0.7-1,1
				c-0.3,0.4-0.6,0.8-0.9,1.2c-0.3,0.4-0.5,0.9-0.7,1.4c-0.2,0.5-0.4,1-0.5,1.5c-0.1,0.6-0.2,1.1-0.2,1.7c0,0.6,0,1.3,0.1,1.9
				c0.1,0.7,0.3,1.4,0.5,2.1c0.3,0.8,0.6,1.5,1,2.3c0.1,0.2,0.2,0.4,0.3,0.6c0.1,0.2,0.2,0.4,0.4,0.6c0,0,0.1,0.1,0.1,0.1
				c0.1,0,0.1,0,0.2-0.1c0-0.1,0-0.1,0-0.2c0-0.1,0-0.1,0-0.2c-0.1-0.4-0.2-0.8-0.3-1.2c-0.1-0.4-0.2-0.8-0.2-1.3
				c-0.1-0.5-0.1-1-0.2-1.4c0-0.5,0-1,0-1.6c0-0.6,0.1-1.1,0.1-1.7c0.1-0.6,0.2-1.2,0.4-1.7c0.2-0.6,0.4-1.2,0.6-1.8
				c0.3-0.6,0.6-1.2,1-1.8c0.4-0.6,0.8-1.2,1.3-1.7c0.5-0.6,1.1-1.1,1.7-1.6c0.3-0.3,0.7-0.5,1-0.8
				C378.6,262.4,378.9,262.1,379.3,261.8C379.3,261.9,379.3,261.9,379.3,261.8z"/>
		</g>
		<g id="XMLID_115_">
			<circle id="XMLID_117_" class="st3" cx="424.4" cy="231" r="13.5"/>
			<path id="XMLID_116_" class="st2" d="M423,218.5c-0.1,0-0.2,0-0.3,0c-0.1,0-0.3,0.1-0.4,0.1c-0.3,0.1-0.6,0.2-0.9,0.3
				c-0.4,0.1-0.7,0.2-1,0.4c-0.4,0.2-0.8,0.3-1.1,0.5c-0.4,0.2-0.8,0.4-1.2,0.6c-0.4,0.2-0.8,0.5-1.2,0.8c-0.4,0.3-0.8,0.6-1.1,0.9
				c-0.4,0.3-0.7,0.7-1,1.1c-0.3,0.4-0.6,0.8-0.8,1.3c-0.3,0.5-0.5,1-0.6,1.5c-0.2,0.5-0.3,1.1-0.4,1.7c-0.1,0.6-0.1,1.3,0,1.9
				c0,0.7,0.2,1.4,0.3,2.1c0.2,0.8,0.4,1.6,0.8,2.4c0.1,0.2,0.2,0.4,0.3,0.7c0.1,0.2,0.2,0.4,0.3,0.6c0,0,0,0.1,0.1,0.1
				c0.1,0,0.1,0,0.2,0c0,0,0-0.1,0-0.2c0-0.1,0-0.1,0-0.2c-0.1-0.4-0.1-0.8-0.2-1.2c-0.1-0.4-0.1-0.9-0.1-1.3c0-0.5,0-1,0-1.4
				c0-0.5,0.1-1,0.1-1.6c0.1-0.6,0.2-1.1,0.3-1.6c0.1-0.6,0.3-1.1,0.5-1.7c0.2-0.6,0.5-1.1,0.8-1.7c0.3-0.6,0.7-1.1,1.1-1.7
				c0.5-0.6,0.9-1.1,1.5-1.6c0.6-0.5,1.2-1,1.9-1.5c0.4-0.2,0.7-0.5,1.1-0.7C422.2,219,422.6,218.8,423,218.5
				C423,218.6,423,218.6,423,218.5z"/>
		</g>
		<g id="XMLID_112_">
			<circle id="XMLID_114_" class="st4" cx="490.4" cy="201.2" r="13.5"/>
			<path id="XMLID_113_" class="st2" d="M490.6,189c-0.1,0-0.2,0-0.3,0c-0.1,0-0.3,0.1-0.4,0.1c-0.3,0.1-0.6,0.1-0.9,0.2
				c-0.4,0.1-0.7,0.2-1.1,0.3c-0.4,0.1-0.8,0.3-1.2,0.4c-0.4,0.2-0.8,0.4-1.2,0.6c-0.4,0.2-0.8,0.5-1.2,0.7
				c-0.4,0.3-0.8,0.6-1.2,0.9c-0.4,0.3-0.7,0.7-1.1,1.1c-0.3,0.4-0.6,0.8-0.9,1.2c-0.3,0.5-0.5,0.9-0.7,1.4
				c-0.2,0.5-0.4,1.1-0.5,1.7c-0.1,0.6-0.2,1.3-0.1,1.9c0,0.7,0.1,1.4,0.2,2.1c0.1,0.8,0.4,1.6,0.6,2.4c0.1,0.2,0.2,0.5,0.2,0.7
				c0.1,0.2,0.1,0.4,0.3,0.6c0,0,0,0.1,0.1,0.1c0.1,0,0.1,0,0.2,0c0,0,0-0.1,0-0.2c0-0.1,0-0.1,0-0.2c0-0.4-0.1-0.8-0.1-1.2
				c0-0.4,0-0.9,0-1.3c0-0.5,0-1,0.1-1.4c0-0.5,0.1-1,0.2-1.6c0.1-0.5,0.2-1.1,0.4-1.6c0.2-0.6,0.4-1.1,0.6-1.7
				c0.3-0.6,0.6-1.1,0.9-1.6c0.4-0.6,0.8-1.1,1.2-1.6c0.5-0.5,1-1,1.6-1.5c0.6-0.5,1.3-1,2-1.4c0.4-0.2,0.8-0.4,1.1-0.6
				C489.8,189.5,490.2,189.3,490.6,189C490.6,189.1,490.7,189.1,490.6,189z"/>
		</g>
		<g id="XMLID_109_">
			<circle id="XMLID_111_" class="st5" cx="550.6" cy="221.3" r="13.5"/>
			<path id="XMLID_110_" class="st2" d="M550.9,209.3c-0.1,0-0.2,0-0.3,0c-0.1,0-0.3,0.1-0.4,0.1c-0.3,0.1-0.6,0.1-0.9,0.2
				c-0.4,0.1-0.7,0.2-1.1,0.3c-0.4,0.1-0.8,0.3-1.2,0.4c-0.4,0.2-0.8,0.4-1.2,0.6c-0.4,0.2-0.8,0.4-1.2,0.7
				c-0.4,0.3-0.8,0.6-1.2,0.9c-0.4,0.3-0.7,0.7-1.1,1c-0.3,0.4-0.7,0.8-0.9,1.2c-0.3,0.5-0.5,0.9-0.7,1.4c-0.2,0.5-0.4,1.1-0.5,1.7
				c-0.1,0.6-0.2,1.3-0.2,1.9c0,0.7,0.1,1.4,0.2,2.1c0.1,0.8,0.3,1.6,0.6,2.4c0.1,0.2,0.2,0.5,0.2,0.7c0.1,0.2,0.1,0.4,0.2,0.6
				c0,0,0,0.1,0.1,0.1c0.1,0,0.1,0,0.2,0c0,0,0-0.1,0-0.2c0-0.1,0-0.1,0-0.2c0-0.4-0.1-0.8-0.1-1.2c0-0.4,0-0.9,0-1.3
				c0-0.5,0-1,0.1-1.4c0.1-0.5,0.1-1,0.2-1.6c0.1-0.5,0.3-1.1,0.4-1.6c0.2-0.6,0.4-1.1,0.7-1.6c0.3-0.6,0.6-1.1,0.9-1.6
				c0.4-0.6,0.8-1.1,1.2-1.6c0.5-0.5,1-1,1.6-1.5c0.6-0.5,1.3-0.9,2-1.3c0.4-0.2,0.8-0.4,1.1-0.6
				C550.1,209.7,550.5,209.5,550.9,209.3C550.9,209.4,550.9,209.4,550.9,209.3z"/>
		</g>
		<g id="XMLID_106_">
			<circle id="XMLID_108_" class="st6" cx="583.2" cy="271.4" r="13.5"/>
			<path id="XMLID_107_" class="st2" d="M582.6,259.9c-0.1,0-0.2,0-0.3,0c-0.1,0.1-0.3,0.1-0.4,0.1c-0.3,0.1-0.6,0.2-0.9,0.3
				c-0.3,0.1-0.7,0.3-1,0.4c-0.4,0.2-0.8,0.4-1.1,0.6c-0.4,0.2-0.8,0.4-1.2,0.7c-0.4,0.3-0.8,0.5-1.1,0.8c-0.4,0.3-0.7,0.6-1.1,1
				c-0.3,0.4-0.7,0.7-1,1.2c-0.3,0.4-0.6,0.9-0.8,1.3c-0.2,0.5-0.4,1-0.6,1.5c-0.2,0.6-0.2,1.1-0.3,1.7c0,0.6,0,1.3,0,1.9
				c0.1,0.7,0.2,1.4,0.4,2.1c0.2,0.8,0.5,1.6,0.9,2.3c0.1,0.2,0.2,0.4,0.3,0.7c0.1,0.2,0.2,0.4,0.3,0.6c0,0,0.1,0.1,0.1,0.1
				c0.1,0,0.1,0,0.2-0.1c0,0,0-0.1,0-0.2c0-0.1,0-0.1,0-0.2c-0.1-0.4-0.1-0.8-0.2-1.2c-0.1-0.4-0.1-0.9-0.2-1.3c0-0.5-0.1-1-0.1-1.4
				c0-0.5,0-1,0.1-1.6c0-0.6,0.1-1.1,0.2-1.7c0.1-0.6,0.3-1.2,0.5-1.7c0.2-0.6,0.5-1.2,0.7-1.7c0.3-0.6,0.7-1.2,1.1-1.7
				c0.4-0.6,0.9-1.1,1.4-1.6c0.6-0.6,1.2-1.1,1.8-1.5c0.3-0.3,0.7-0.5,1.1-0.7C581.8,260.4,582.2,260.2,582.6,259.9
				C582.6,260,582.7,260,582.6,259.9z"/>
		</g>
		<g id="XMLID_103_">
			<circle id="XMLID_105_" class="st7" cx="562.5" cy="326.8" r="13.5"/>
			<path id="XMLID_104_" class="st2" d="M561.1,315.6c-0.1,0-0.2,0-0.3,0c-0.1,0-0.3,0.1-0.4,0.1c-0.3,0.1-0.6,0.2-0.9,0.3
				c-0.4,0.1-0.7,0.2-1,0.4c-0.4,0.2-0.8,0.3-1.1,0.5c-0.4,0.2-0.8,0.4-1.2,0.6c-0.4,0.2-0.8,0.5-1.2,0.8c-0.4,0.3-0.8,0.6-1.1,0.9
				c-0.4,0.3-0.7,0.7-1,1.1c-0.3,0.4-0.6,0.8-0.9,1.3c-0.3,0.5-0.5,1-0.6,1.5c-0.2,0.5-0.3,1.1-0.4,1.7c-0.1,0.6-0.1,1.3-0.1,1.9
				c0,0.7,0.1,1.4,0.3,2.1c0.2,0.8,0.4,1.6,0.7,2.4c0.1,0.2,0.2,0.5,0.3,0.7c0.1,0.2,0.2,0.4,0.3,0.6c0,0,0,0.1,0.1,0.1
				c0.1,0,0.1,0,0.2,0c0,0,0-0.1,0-0.2c0-0.1,0-0.1,0-0.2c-0.1-0.4-0.1-0.8-0.1-1.2c0-0.4-0.1-0.9-0.1-1.3c0-0.5,0-1,0-1.4
				c0-0.5,0.1-1,0.1-1.6c0.1-0.6,0.2-1.1,0.3-1.6c0.2-0.6,0.3-1.1,0.6-1.7c0.2-0.6,0.5-1.1,0.8-1.7c0.3-0.6,0.7-1.1,1.1-1.6
				c0.5-0.6,1-1.1,1.5-1.6c0.6-0.5,1.2-1,1.9-1.4c0.4-0.2,0.7-0.5,1.1-0.7C560.3,316.1,560.7,315.9,561.1,315.6
				C561.1,315.7,561.2,315.7,561.1,315.6z"/>
		</g>
	</g>
	<g id="XMLID_83_">
		<g id="XMLID_90_">
			<path id="XMLID_101_" class="st8" d="M510.1,164.9c-0.4-4.2-0.8-8.3-1.2-12.5c-0.3-3.2-0.6-6.3-0.9-9.5c-0.1-1.5-1.2-4.9-0.6-6.3
				c0.4-1.1,1.6-0.4,2.9-0.3c2.2,0.2,4.4,0.2,6.5,0.1c1,0,2.4-0.8,3.3-0.7c0.9,0.1,0.7,0.1,0.8,1.1c0.1,1-0.1,2.2-0.2,3.2
				c-0.2,3.2-0.4,6.4-0.6,9.6c-0.3,4.8-0.6,9.5-1,14.3C519,164,514.1,169.4,510.1,164.9z"/>
			<path id="XMLID_100_" class="st9" d="M521.8,229.3l-2.1-65c0,0-5.3,4.4-9.3,0.3l-3.5,65.6C507,230.2,516.1,238.5,521.8,229.3z"/>
			<path id="XMLID_99_" class="st10" d="M512.7,167l-3.4,65l-2.7-1.8l3.5-65.1C510.1,165.1,510.8,165.3,512.7,167z"/>
			<path id="XMLID_98_" class="st11" d="M545.9,176.8L545.9,176.8z"/>
			<path id="XMLID_95_" class="st10" d="M516.5,163.9c0-0.1,0-0.1,0-0.2c0.1-0.3,0.1-0.6,0.2-1c0-0.2,0.2-0.5,0.1-0.6
				c-0.2-0.3-0.6-0.2-0.8,0c-0.2,0.1-0.3,0.4-0.3,0.6c0,0.3,0,0.6,0,1c0,0.7-0.1,1.3-0.1,2c0,0.5-0.1,1-0.1,1.5
				c0,0.3,0.3,0.3,0.3,0.1c0.1-0.4,0.2-0.7,0.2-1.1C516.2,165.4,516.4,164.6,516.5,163.9z"/>
			<path id="XMLID_94_" class="st10" d="M514.6,165.6c0-0.1,0-0.1,0-0.2c0-0.2,0.2-0.6,0.1-0.8c-0.1-0.1-0.2-0.1-0.3-0.1
				c-0.1,0-0.2,0.1-0.3,0.2c-0.3,0.3-0.4,0.7-0.4,1.1c0,0.5-0.1,1-0.1,1.5c0,0.5-0.1,1-0.1,1.5c0,0.3,0.3,0.3,0.3,0.1
				c0.1-0.4,0.2-0.7,0.2-1.1C514.3,167.1,514.4,166.3,514.6,165.6z"/>
			<path id="XMLID_93_" class="st0" d="M517.8,348.3l-0.7,25.4c-2.9,0.4-5.7,0.7-8.5,0.7l-0.2-17.4l2.4-5
				C513.2,351.2,515.6,349.9,517.8,348.3z"/>
			<path id="XMLID_92_" class="st12" d="M508.6,374.4c2.8-0.1,5.6-0.3,8.5-0.7l-1.3,45.3c-0.2,7.3-6.5,6.9-6.6-0.5L508.6,374.4z"/>
			<path id="XMLID_91_" class="st12" d="M521.3,227l-0.1,3.2l-2.5,88.7l-0.8,29.3c-2.2,1.6-4.6,2.9-7,3.7l-2.4,5l-0.5-37.9
				l-1.2-88.8l0-1.9l0-1c0,0,0,0,0.1,0.1c0.1,0.1,0.2,0.2,0.3,0.3c0.8,0.7,1.6,1.3,2.3,1.7C516,233,521.3,227,521.3,227z"/>
		</g>
		<path id="XMLID_89_" class="st10" d="M511,136l0.5,4.7c0,0.3,0.3,0.3,0.3,0l0.4-4.8L511,136z"/>
		<path id="XMLID_84_" class="st10" d="M514.8,135.9l0.5,5.6c0,0.3,0.3,0.3,0.3,0l0.4-5.6L514.8,135.9z"/>
	</g>
	<g id="XMLID_43_">
		<path id="XMLID_82_" class="st0" d="M510.9,352l-10.8,22.1c-0.7-0.1-1.4-0.2-2.1-0.3c-2.9-0.4-6.4-1.3-9.9-2.6l8.1-20.1
			C500.2,353.5,505.6,353.8,510.9,352z"/>
		<path id="XMLID_80_" class="st13" d="M498,373.8c0.7,0.1,1.4,0.2,2.1,0.3l-9.9,20.3c-8.2,10.6-10.8-1.5-10.8-1.5l8.8-21.7
			C491.6,372.4,495.1,373.3,498,373.8z"/>
		<path id="XMLID_79_" class="st13" d="M555.6,260.3l-30.7,62.9l-14,28.8c-5.3,1.8-10.7,1.5-14.6-0.9l13.1-32.4l26.9-66.6l2.7,1.1
			L555.6,260.3z"/>
		<path id="XMLID_71_" class="st14" d="M566.3,189l-30,63.2c0,0,4.1,16.6,19.3,8.1l24.1-65.2L566.3,189z"/>
		<path id="XMLID_70_" class="st15" d="M592.9,143.9c-0.2-0.6-1-0.5-1.1,0c-0.8,4.5-3.9,13.4-16.8,21.8
			c-18.2,11.9-6.1,27.7-6.1,27.7s13.4,8.3,21-9.3C597,167.7,599.4,166.1,592.9,143.9z"/>
		<polygon id="XMLID_69_" class="st2" points="568.8,193.7 537.7,255.8 536.3,252.2 566.3,189 		"/>
		<g id="XMLID_68_" class="st16">
			<path id="XMLID_14_" class="st11" d="M589.3,159.2c0,0-1.9,1-4.7,2.8c-1.4,0.9-3,2-4.6,3.2c-0.8,0.6-1.6,1.3-2.4,2
				c-0.8,0.7-1.5,1.5-2.2,2.4c-0.4,0.4-0.6,0.9-0.9,1.3c-0.2,0.5-0.4,0.9-0.5,1.4c-0.3,1.1-0.5,2-0.6,3c-0.1,1-0.2,2-0.4,3
				c-0.2,1-0.4,1.9-0.8,2.6c-0.3,0.8-0.7,1.5-1,2c-0.3,0.6-0.7,1.1-0.9,1.5c-0.5,0.8-0.9,1.2-0.9,1.2l-0.1-0.1c0,0,0.2-0.5,0.7-1.4
				c0.2-0.4,0.4-1,0.7-1.6c0.3-0.6,0.5-1.3,0.8-2.1c0.3-0.8,0.5-1.6,0.6-2.5c0.1-0.9,0.2-1.9,0.3-2.9c0.1-1,0.4-2.1,0.7-3.2
				c0.1-0.5,0.4-1.1,0.7-1.6c0.3-0.5,0.6-1,1-1.4c0.7-0.9,1.5-1.7,2.3-2.4c0.8-0.7,1.7-1.4,2.5-2c1.7-1.2,3.3-2.2,4.7-3.1
				C587.2,160.1,589.2,159.1,589.3,159.2L589.3,159.2z"/>
		</g>
		<g id="XMLID_49_" class="st16">
			<path id="XMLID_12_" class="st11" d="M573.3,189.2c0,0,0-0.6,0.2-1.7c0.1-1.1,0.4-2.6,0.8-4.3c0.2-0.9,0.5-1.8,0.8-2.8
				c0.3-1,0.8-2,1.4-3c0.3-0.5,0.7-1,1.1-1.4l0.7-0.6c0.2-0.2,0.5-0.3,0.7-0.5c0.9-0.7,1.8-1.5,2.7-2.3c1.7-1.7,3.4-3.4,4.9-5.1
				c0.8-0.8,1.5-1.7,2.1-2.4c0.7-0.8,1.3-1.5,1.8-2.3c1.1-1.4,1.9-2.7,2.3-3.7c0.2-0.5,0.3-0.9,0.4-1.1c0-0.3,0-0.4,0-0.4l0.1,0
				c0,0,0,0.2,0,0.4c0,0.3-0.1,0.7-0.2,1.2c-0.1,0.5-0.4,1.1-0.7,1.8c-0.3,0.7-0.7,1.4-1.2,2.2c-0.5,0.8-1.1,1.6-1.7,2.4
				c-0.6,0.8-1.4,1.7-2.1,2.5c-1.5,1.7-3.3,3.4-5.1,5c-0.9,0.8-1.9,1.6-2.8,2.3c-0.3,0.2-0.5,0.3-0.8,0.5l-0.7,0.5
				c-0.4,0.4-0.8,0.8-1.1,1.3c-0.6,0.9-1.1,1.9-1.5,2.8c-0.4,0.9-0.7,1.9-0.9,2.8c-0.5,1.7-0.8,3.2-1,4.3
				C573.5,188.6,573.4,189.2,573.3,189.2L573.3,189.2z"/>
		</g>
		<g id="XMLID_44_" class="st16">
			<path id="XMLID_10_" class="st11" d="M576.7,190.6c0,0,0.7-0.6,1.6-1.6c0.9-1,2.1-2.4,3.1-3.8c0.5-0.7,0.9-1.5,1.4-2.2
				c0.2-0.4,0.4-0.7,0.6-1c0.2-0.3,0.3-0.6,0.5-0.9c0.3-0.6,0.5-1.1,0.6-1.5c0.1-0.4,0.2-0.6,0.2-0.6l0.1,0c0,0,0,0.2,0,0.6
				c0,0.2,0,0.5-0.1,0.7c-0.1,0.3-0.1,0.6-0.2,0.9c-0.1,0.3-0.2,0.7-0.4,1.1c-0.2,0.4-0.3,0.8-0.6,1.1c-0.2,0.4-0.5,0.8-0.8,1.1
				c-0.3,0.4-0.6,0.7-0.9,1.1c-1.2,1.4-2.5,2.7-3.5,3.6C577.5,190.1,576.7,190.6,576.7,190.6L576.7,190.6z"/>
		</g>
	</g>
</g>
</svg>
