<?xml version="1.0" encoding="utf-8"?>
<!-- Generator: Adobe Illustrator 19.0.0, SVG Export Plug-In . SVG Version: 6.00 Build 0)  -->
<svg version="1.1" id="Layer_1" xmlns="http://www.w3.org/2000/svg" xmlns:xlink="http://www.w3.org/1999/xlink" x="0px" y="0px"
	 viewBox="0 0 473.9 241" style="enable-background:new 0 0 473.9 241;" xml:space="preserve">
<style type="text/css">
	.st0{fill:#EFF0F1;}
	.st1{fill:#DAE1E7;}
	.st2{fill:#F16D6E;}
	.st3{fill:#EFC01A;}
	.st4{fill:#5DC8DD;}
	.st5{fill:#37BA99;}
</style>
<path id="XMLID_53_" class="st0" d="M0,235.7c0,2.7,2.7,5.3,5.3,5.3h365.4c2.7,0,4.3-2.7,4.3-5.3V14.9H0V235.7z"/>
<path id="XMLID_52_" class="st1" d="M365.8,0H10.1C4.8,0,0,3.9,0,9.2v5.8h375V9.2C375,3.9,371.1,0,365.8,0z"/>
<circle id="XMLID_22_" class="st2" cx="358.1" cy="7.2" r="4.3"/>
<circle id="XMLID_21_" class="st3" cx="345.6" cy="7.2" r="4.3"/>
<circle id="XMLID_20_" class="st4" cx="333.1" cy="7.2" r="4.3"/>
<circle id="XMLID_19_" class="st1" cx="13" cy="30.8" r="2.7"/>
<circle id="XMLID_7_" class="st1" cx="13" cy="50.3" r="2.7"/>
<circle id="XMLID_8_" class="st1" cx="13" cy="69.8" r="2.7"/>
<circle id="XMLID_9_" class="st1" cx="13" cy="89.2" r="2.7"/>
<circle id="XMLID_10_" class="st1" cx="13" cy="108.7" r="2.7"/>
<circle id="XMLID_11_" class="st1" cx="13" cy="128.1" r="2.7"/>
<circle id="XMLID_12_" class="st1" cx="13" cy="146.6" r="2.7"/>
<circle id="XMLID_13_" class="st1" cx="13" cy="166.1" r="2.7"/>
<circle id="XMLID_14_" class="st1" cx="13" cy="184.6" r="2.7"/>
<circle id="XMLID_15_" class="st1" cx="13" cy="204.1" r="2.7"/>
<path id="XMLID_16_" class="st3" d="M68,34.2H30.5c-1.8,0-3.4-1.5-3.4-3.4l0,0c0-1.8,1.5-3.4,3.4-3.4H68c1.9,0,3.4,1.5,3.4,3.4l0,0
	C71.3,32.7,69.8,34.2,68,34.2z"/>
<path id="XMLID_17_" class="st2" d="M50,53.7H30.5c-1.8,0-3.4-1.5-3.4-3.4l0,0c0-1.8,1.5-3.4,3.4-3.4h19.4c1.8,0,3.4,1.5,3.4,3.4
	l0,0C53.4,52.2,51.8,53.7,50,53.7z"/>
<path id="XMLID_18_" class="st5" d="M59.3,73.1H30.5c-1.8,0-3.4-1.5-3.4-3.4l0,0c0-1.8,1.5-3.4,3.4-3.4h28.8c1.8,0,3.4,1.5,3.4,3.4
	l0,0C62.7,71.6,61.2,73.1,59.3,73.1z"/>
<path id="XMLID_23_" class="st4" d="M36.9,92.6h-6.4c-1.8,0-3.4-1.5-3.4-3.4l0,0c0-1.8,1.5-3.4,3.4-3.4h6.4c1.8,0,3.4,1.5,3.4,3.4
	l0,0C40.2,91.1,38.8,92.6,36.9,92.6z"/>
<path id="XMLID_24_" class="st5" d="M65.6,112.1h-35c-1.8,0-3.4-1.5-3.4-3.4l0,0c0-1.9,1.5-3.4,3.4-3.4h35c1.9,0,3.4,1.5,3.4,3.4
	l0,0C68.9,110.6,67.4,112.1,65.6,112.1z"/>
<path id="XMLID_25_" class="st2" d="M54.5,131.5h-24c-1.8,0-3.4-1.5-3.4-3.4l0,0c0-1.8,1.5-3.4,3.4-3.4h24c1.8,0,3.4,1.5,3.4,3.4
	l0,0C57.8,130,56.3,131.5,54.5,131.5z"/>
<path id="XMLID_26_" class="st4" d="M76.2,150H30.5c-1.8,0-3.4-1.5-3.4-3.4l0,0c0-1.9,1.5-3.4,3.4-3.4h45.6c1.9,0,3.4,1.5,3.4,3.4
	l0,0C79.5,148.5,78,150,76.2,150z"/>
<path id="XMLID_27_" class="st3" d="M65.6,169.5h-35c-1.8,0-3.4-1.5-3.4-3.4l0,0c0-1.9,1.5-3.4,3.4-3.4h35c1.9,0,3.4,1.5,3.4,3.4
	l0,0C68.9,168,67.4,169.5,65.6,169.5z"/>
<path id="XMLID_28_" class="st2" d="M84.3,188H30.5c-1.8,0-3.4-1.5-3.4-3.4l0,0c0-1.9,1.5-3.4,3.4-3.4h53.8c1.9,0,3.4,1.5,3.4,3.4
	l0,0C87.7,186.5,86.2,188,84.3,188z"/>
<path id="XMLID_29_" class="st4" d="M59.3,207.4H30.5c-1.8,0-3.4-1.5-3.4-3.4l0,0c0-1.9,1.5-3.4,3.4-3.4h28.8c1.8,0,3.4,1.5,3.4,3.4
	l0,0C62.7,205.9,61.2,207.4,59.3,207.4z"/>
<path id="XMLID_30_" class="st5" d="M97.9,34.2H78.1c-1.8,0-3.4-1.5-3.4-3.4l0,0c0-1.8,1.5-3.4,3.4-3.4h19.9c1.8,0,3.4,1.5,3.4,3.4
	l0,0C101.3,32.7,99.8,34.2,97.9,34.2z"/>
<path id="XMLID_31_" class="st4" d="M123.5,34.2H108c-1.9,0-3.4-1.5-3.4-3.4l0,0c0-1.8,1.5-3.4,3.4-3.4h15.5c1.9,0,3.4,1.5,3.4,3.4
	l0,0C126.9,32.7,125.4,34.2,123.5,34.2z"/>
<path id="XMLID_32_" class="st3" d="M158.8,34.2h-25.2c-1.9,0-3.4-1.5-3.4-3.4l0,0c0-1.8,1.5-3.4,3.4-3.4h25.2
	c1.8,0,3.4,1.5,3.4,3.4l0,0C162.2,32.7,160.7,34.2,158.8,34.2z"/>
<path id="XMLID_33_" class="st4" d="M86.3,53.7H60.1c-1.8,0-3.4-1.5-3.4-3.4l0,0c0-1.8,1.5-3.4,3.4-3.4h26.2c1.9,0,3.4,1.5,3.4,3.4
	l0,0C89.7,52.1,88.2,53.7,86.3,53.7z"/>
<path id="XMLID_34_" class="st5" d="M134,53.7H96.4c-1.8,0-3.4-1.5-3.4-3.4l0,0c0-1.8,1.5-3.4,3.4-3.4H134c1.9,0,3.4,1.5,3.4,3.4
	l0,0C137.4,52.1,135.9,53.7,134,53.7z"/>
<path id="XMLID_35_" class="st2" d="M102.4,73.1h-33c-1.8,0-3.4-1.5-3.4-3.4l0,0c0-1.8,1.5-3.4,3.4-3.4h33c1.9,0,3.4,1.5,3.4,3.4
	l0,0C105.8,71.6,104.3,73.1,102.4,73.1z"/>
<path id="XMLID_36_" class="st3" d="M129.4,73.1h-16.9c-1.9,0-3.4-1.5-3.4-3.4l0,0c0-1.8,1.5-3.4,3.4-3.4h16.9
	c1.9,0,3.4,1.5,3.4,3.4l0,0C132.8,71.6,131.3,73.1,129.4,73.1z"/>
<path id="XMLID_37_" class="st3" d="M73.3,92.6H47c-1.8,0-3.4-1.5-3.4-3.4l0,0c0-1.9,1.5-3.4,3.4-3.4h26.3c1.9,0,3.4,1.5,3.4,3.4
	l0,0C76.6,91.1,75.1,92.6,73.3,92.6z"/>
<path id="XMLID_38_" class="st5" d="M113.8,92.6H83.4c-1.8,0-3.4-1.5-3.4-3.4l0,0c0-1.8,1.5-3.4,3.4-3.4h30.4c1.9,0,3.4,1.5,3.4,3.4
	l0,0C117.1,91.1,115.6,92.6,113.8,92.6z"/>
<path id="XMLID_39_" class="st2" d="M145.9,92.6h-22c-1.8,0-3.4-1.5-3.4-3.4l0,0c0-1.8,1.5-3.4,3.4-3.4h22c1.8,0,3.4,1.5,3.4,3.4
	l0,0C149.3,91.1,147.7,92.6,145.9,92.6z"/>
<path id="XMLID_40_" class="st4" d="M183.3,92.6H156c-1.9,0-3.4-1.5-3.4-3.4l0,0c0-1.8,1.5-3.4,3.4-3.4h27.3c1.9,0,3.4,1.5,3.4,3.4
	l0,0C186.7,91.1,185.2,92.6,183.3,92.6z"/>
<path id="XMLID_41_" class="st4" d="M121.5,112.1H75.5c-1.8,0-3.4-1.5-3.4-3.4l0,0c0-1.9,1.5-3.4,3.4-3.4h45.9
	c1.9,0,3.4,1.5,3.4,3.4l0,0C124.8,110.6,123.3,112.1,121.5,112.1z"/>
<path id="XMLID_42_" class="st3" d="M153.3,112.1h-21.7c-1.8,0-3.4-1.5-3.4-3.4l0,0c0-1.9,1.5-3.4,3.4-3.4h21.7
	c1.9,0,3.4,1.5,3.4,3.4l0,0C156.6,110.6,155.2,112.1,153.3,112.1z"/>
<path id="XMLID_43_" class="st3" d="M78.1,131.5H64.6c-1.9,0-3.4-1.5-3.4-3.4l0,0c0-1.8,1.5-3.4,3.4-3.4h13.5c1.9,0,3.4,1.5,3.4,3.4
	l0,0C81.5,130,80,131.5,78.1,131.5z"/>
<path id="XMLID_44_" class="st5" d="M111.8,131.5H88.2c-1.8,0-3.4-1.5-3.4-3.4l0,0c0-1.8,1.5-3.4,3.4-3.4h23.6
	c1.8,0,3.4,1.5,3.4,3.4l0,0C115.2,130,113.7,131.5,111.8,131.5z"/>
<path id="XMLID_45_" class="st2" d="M153.9,131.5h-32c-1.9,0-3.4-1.5-3.4-3.4l0,0c0-1.8,1.5-3.4,3.4-3.4h32c1.9,0,3.4,1.5,3.4,3.4
	l0,0C157.3,130,155.8,131.5,153.9,131.5z"/>
<path id="XMLID_46_" class="st3" d="M117.6,150H86.3c-1.8,0-3.4-1.5-3.4-3.4l0,0c0-1.8,1.5-3.4,3.4-3.4h31.3c1.8,0,3.4,1.5,3.4,3.4
	l0,0C121,148.5,119.5,150,117.6,150z"/>
<path id="XMLID_47_" class="st5" d="M130.8,188H94.5c-1.8,0-3.4-1.5-3.4-3.4l0,0c0-1.9,1.5-3.4,3.4-3.4h36.2c1.9,0,3.4,1.5,3.4,3.4
	l0,0C134.1,186.5,132.6,188,130.8,188z"/>
<path id="XMLID_48_" class="st3" d="M147.5,188h-6.6c-1.8,0-3.4-1.5-3.4-3.4l0,0c0-1.9,1.5-3.4,3.4-3.4h6.6c1.9,0,3.4,1.5,3.4,3.4
	l0,0C150.9,186.5,149.4,188,147.5,188z"/>
<path id="XMLID_49_" class="st4" d="M171.4,188h-13.7c-1.8,0-3.4-1.5-3.4-3.4l0,0c0-1.9,1.5-3.4,3.4-3.4h13.7c1.9,0,3.4,1.5,3.4,3.4
	l0,0C174.7,186.5,173.2,188,171.4,188z"/>
<path id="XMLID_50_" class="st3" d="M98.2,207.4H69.4c-1.8,0-3.4-1.5-3.4-3.4l0,0c0-1.9,1.5-3.4,3.4-3.4h28.8c1.8,0,3.4,1.5,3.4,3.4
	l0,0C101.6,205.9,100,207.4,98.2,207.4z"/>
<path id="XMLID_51_" class="st2" d="M137,207.4h-28.8c-1.9,0-3.4-1.5-3.4-3.4l0,0c0-1.9,1.5-3.4,3.4-3.4H137c1.8,0,3.4,1.5,3.4,3.4
	l0,0C140.4,205.9,138.9,207.4,137,207.4z"/>
<path id="XMLID_6_" class="st3" d="M471.4,110.5l-14.5-6.2c-1.4-0.6-2.3-1.9-2.4-3.3c-0.1-2-0.3-4-0.7-6c-0.3-1.4,0.3-2.9,1.5-3.8
	l12.7-9.3c1.6-1.2,2-3.3,1.1-5l-6.5-11.7c-0.9-1.7-3-2.4-4.8-1.7l-14.6,5.9c-1.4,0.5-2.9,0.3-4-0.7c-1.5-1.3-3.1-2.6-4.7-3.7
	c-1.2-0.8-1.8-2.3-1.6-3.7l2.3-15.2c0.3-1.9-1-3.4-2.9-3.9l-12.9-3.7c-1.9-0.5-3.8,0-4.5,1.8l-6.1,14.3c-0.6,1.4-1.8,2.2-3.3,2.2
	c-2,0.1-4,0.3-6,0.6c-1.4,0.3-2.9-0.4-3.8-1.5l-9.3-12.7c-1.2-1.6-3.3-2-5-1.1l-11.7,6.5c-1.7,0.9-2.4,3-1.7,4.8l5.9,14.6
	c0.5,1.4,0.3,2.9-0.7,4c-1.3,1.5-2.6,3.1-3.7,4.7c-0.8,1.2-2.3,1.8-3.7,1.6L350,75.9c-1.9-0.3-3.7,0.9-4.2,2.8l-3.7,12.9
	c-0.5,1.9,0.3,3.8,2.1,4.6l14.4,6.2c1.4,0.6,2.2,1.9,2.3,3.3c0.1,2,0.3,4,0.7,6c0.3,1.4-0.3,2.9-1.5,3.8l-12.7,9.3
	c-1.6,1.2-2,3.3-1.1,5l6.5,11.7c0.9,1.7,3,2.4,4.8,1.7l14.6-5.9c1.4-0.5,2.9-0.3,4,0.7c1.5,1.3,3.1,2.6,4.7,3.7
	c1.2,0.8,1.8,2.3,1.6,3.7l-2.5,15.9c-0.3,1.9,0.8,4.1,2.7,4.7l12.9,3.7c1.9,0.5,4-0.8,4.7-2.6l6.2-14.6c0.6-1.4,1.9-2.4,3.4-2.4
	c2-0.1,4-0.4,6-0.7c1.4-0.3,2.9,0.3,3.8,1.5l9.3,12.7c1.2,1.6,3.3,2,5,1.1l11.7-6.5c1.7-0.9,2.4-3,1.7-4.8l-5.9-14.6
	c-0.5-1.4-0.3-2.9,0.7-4c1.3-1.5,2.6-3.1,3.7-4.7c0.8-1.2,2.3-1.8,3.7-1.6l15.6,2.4c1.9,0.3,3.9-0.9,4.4-2.7l3.7-12.9
	C474.3,113.3,473.2,111.3,471.4,110.5z M399.9,130.7c-15.1-4.3-23.8-20-19.5-35.1s20-23.8,35.1-19.5c15.1,4.3,23.8,20,19.5,35.1
	C430.7,126.2,415,135,399.9,130.7z"/>
<path id="XMLID_1_" class="st3" d="M351.3,148.4l-12.1-0.9c-1.1-0.1-2.1-0.8-2.5-1.9c-0.6-1.5-1.2-2.9-2-4.2c-0.6-1-0.5-2.2,0.2-3.2
	l7-10c0.9-1.2,0.7-2.9-0.4-3.9l-7.7-7c-1.1-1-2.8-1-4-0.1l-9.2,7.9c-0.9,0.7-2.1,0.9-3.1,0.5c-1.4-0.6-2.9-1.1-4.4-1.6
	c-1.1-0.3-1.9-1.2-2.1-2.4l-2.1-11.6c-0.3-1.5-1.6-2.1-3.1-2.1l-10.4,0.5c-1.5,0.1-2.7,0.8-2.9,2.3l-1,11.9c-0.1,1.1-0.8,2-1.9,2.4
	c-1.5,0.6-2.9,1.2-4.2,1.9c-1,0.6-2.2,0.5-3.2-0.2l-10-7c-1.2-0.9-2.9-0.7-3.9,0.4l-7,7.7c-1,1.1-1,2.8-0.1,4l7.9,9.2
	c0.7,0.9,0.9,2.1,0.5,3.1c-0.6,1.4-1.1,2.9-1.6,4.4c-0.3,1.1-1.2,1.9-2.4,2.1l-12.1,2.1c-1.5,0.3-2.6,1.6-2.6,3.1l0.5,10.4
	c0.1,1.5,1.3,2.7,2.8,2.8l12.2,0.9c1.1,0.1,2.1,0.8,2.6,1.9c0.6,1.5,1.3,2.9,2,4.2c0.6,1,0.5,2.2-0.2,3.2l-7,10
	c-0.9,1.2-0.7,2.9,0.4,3.9l7.7,7c1.1,1,2.8,1,4,0.1l9.3-7.9c0.9-0.7,2.1-0.9,3.1-0.5c1.4,0.6,2.9,1.1,4.4,1.6
	c1.1,0.3,1.9,1.2,2.1,2.4l2.1,12.4c0.3,1.5,1.6,3,3.1,2.9l10.4-0.5c1.5-0.1,2.7-1.7,2.8-3.2l0.9-12.3c0.1-1.1,0.8-2.2,1.9-2.6
	c1.5-0.6,2.9-1.3,4.2-2c1-0.6,2.2-0.5,3.2,0.1l10,7c1.2,0.9,2.9,0.7,3.9-0.4l7-7.7c1-1.1,1-2.8,0.1-4l-7.9-9.3
	c-0.7-0.9-0.9-2.1-0.5-3.1c0.6-1.4,1.1-2.9,1.6-4.4c0.3-1.1,1.2-1.9,2.4-2.1l11.9-2.1c1.5-0.3,2.5-1.6,2.4-3.1l-0.5-10.4
	C353.9,149.8,352.8,148.6,351.3,148.4z M304,180.9c-12.1,0.6-22.4-8.8-23-20.9c-0.6-12.1,8.8-22.4,20.9-23
	c12.1-0.6,22.4,8.8,23,20.9C325.5,170,316.1,180.3,304,180.9z"/>
</svg>
