<?xml version="1.0" encoding="utf-8"?>
<!-- Generator: Adobe Illustrator 19.0.0, SVG Export Plug-In . SVG Version: 6.00 Build 0)  -->
<svg version="1.1" id="Layer_1" xmlns="http://www.w3.org/2000/svg" xmlns:xlink="http://www.w3.org/1999/xlink" x="0px" y="0px"
	 viewBox="0 0 363.3 405.4" style="enable-background:new 0 0 363.3 405.4;" xml:space="preserve">
<style type="text/css">
	.st0{fill:#243B55;}
	.st1{fill:#FFFFFF;}
	.st2{fill:#304B69;}
	.st3{fill:#E2EEFA;}
	.st4{fill:none;stroke:#243B55;stroke-width:3;stroke-miterlimit:10;}
	.st5{fill:#B9D1E7;}
	.st6{fill:#D0DF70;}
	.st7{fill:none;stroke:#565656;stroke-width:2;stroke-miterlimit:10;stroke-dasharray:5.0206,5.0206;}
	.st8{fill:#FF8E30;}
	.st9{fill:none;stroke:#565656;stroke-width:2;stroke-miterlimit:10;}
	.st10{fill:none;stroke:#565656;stroke-width:4;stroke-miterlimit:10;}
	.st11{fill:none;stroke:#565656;stroke-width:3;stroke-miterlimit:10;}
</style>
<g id="XMLID_1_">
	<g id="XMLID_52_">
		<path id="XMLID_58_" class="st0" d="M301.1,405.4H99.1c-5.5,0-10-4.5-10-10V29.2c0-5.5,4.5-10,10-10h202.1c5.5,0,10,4.5,10,10
			v366.2C311.1,400.9,306.7,405.4,301.1,405.4z"/>
		<path id="XMLID_57_" class="st1" d="M287,33.5h-60.2c-2,0-3.8,1-4.9,2.7l-1.5,2.4c-1.1,1.7-2.9,2.7-4.9,2.7h-14.4h-1.9h-14.4
			c-2,0-3.8-1-4.9-2.7l-1.5-2.4c-1.1-1.7-2.9-2.7-4.9-2.7h-60.2c-7.4,0-13.5,6.1-13.5,13.5v330.2c0,7.5,6.1,13.5,13.5,13.5H287
			c7.4,0,13.5-6.1,13.5-13.5V47C300.5,39.6,294.4,33.5,287,33.5z"/>
		<g id="XMLID_53_">
			<path id="XMLID_56_" class="st2" d="M203.6,36.9h-15.1c-0.5,0-0.9-0.4-0.9-0.9v-1.6c0-0.5,0.4-0.9,0.9-0.9h15.1
				c0.5,0,0.9,0.4,0.9,0.9V36C204.5,36.5,204.1,36.9,203.6,36.9z"/>
			<circle id="XMLID_55_" class="st2" cx="211.6" cy="35.2" r="1.7"/>
			<circle id="XMLID_54_" class="st0" cx="211.6" cy="35.2" r="0.6"/>
		</g>
	</g>
	<path id="XMLID_49_" class="st1" d="M281.4,40.3h-56.4c-1.8,0-3.6,1-4.6,2.6l-1.4,2.3c-1,1.6-2.7,2.6-4.6,2.6H201h-1.8h-13.5
		c-1.8,0-3.6-1-4.6-2.6l-1.4-2.3c-1-1.6-2.7-2.6-4.6-2.6h-56.4c-7,0-12.6,5.9-12.6,13V371c0,7.2,5.7,13,12.6,13h162.6
		c7,0,12.6-5.9,12.6-13V53.3C294.1,46.1,288.4,40.3,281.4,40.3z"/>
	<rect id="XMLID_48_" x="106.1" y="345.7" class="st3" width="187.9" height="19.3"/>
	<path id="XMLID_47_" class="st4" d="M317.5,71V27.4c0-10.7-3.9-16.9-14.6-16.9H260"/>
	<path id="XMLID_46_" class="st0" d="M213.8,0"/>
	<rect id="XMLID_45_" x="213.4" y="71.3" class="st5" width="80.7" height="103"/>
	<rect id="XMLID_44_" x="34.7" y="71.3" class="st6" width="148.4" height="103"/>
	<g id="XMLID_43_">
		<path id="XMLID_9_" class="st7" d="M220.8,307.4H113.1c-3.9,0-7-3.1-7-7v-81.3c0-3.9,3.1-7,7-7h107.6c3.9,0,7,3.1,7,7v81.3
			C227.8,304.3,224.6,307.4,220.8,307.4z"/>
	</g>
	<rect id="XMLID_42_" x="249" y="238.2" class="st8" width="90.1" height="69.2"/>
	<line id="XMLID_40_" class="st9" x1="0" y1="223" x2="74" y2="223"/>
	<line id="XMLID_39_" class="st10" x1="0" y1="245" x2="74" y2="245"/>
	<line id="XMLID_38_" class="st11" x1="0" y1="262.5" x2="74" y2="262.5"/>
	<line id="XMLID_37_" class="st9" x1="0" y1="284" x2="74" y2="284"/>
	<line id="XMLID_36_" class="st11" x1="0" y1="304.5" x2="74" y2="304.5"/>
	<line id="XMLID_30_" class="st10" x1="0" y1="321" x2="74" y2="321"/>
	<polygon id="XMLID_27_" class="st0" points="328.2,331.8 327,290.6 363.3,310.5 	"/>
	<line id="XMLID_26_" class="st4" x1="346.1" y1="320.9" x2="356.2" y2="337.4"/>
	<line id="XMLID_18_" class="st9" x1="0" y1="339" x2="74" y2="339"/>
</g>
</svg>
