<?xml version="1.0" encoding="utf-8"?>
<!-- Generator: Adobe Illustrator 19.0.0, SVG Export Plug-In . SVG Version: 6.00 Build 0)  -->
<svg version="1.1" id="Layer_1" xmlns="http://www.w3.org/2000/svg" xmlns:xlink="http://www.w3.org/1999/xlink" x="0px" y="0px"
	 viewBox="0 0 53.4 50.5" style="enable-background:new 0 0 53.4 50.5;" xml:space="preserve">
<style type="text/css">
	.st0{fill:#BDBDBD;}
</style>
<g id="XMLID_2_">
	<path id="XMLID_3_" class="st0" d="M11.6,5.5c0,3-2.3,5.5-5.9,5.5C2.2,11-0.1,8.6,0,5.5C-0.1,2.4,2.2,0,5.8,0S11.5,2.4,11.6,5.5z
		 M0.3,50.5V15.3h10.9v35.2H0.3z"/>
	<path id="XMLID_6_" class="st0" d="M20,26.6c0-4.4-0.1-8.1-0.3-11.2h9.5l0.5,4.8H30c1.4-2.2,5-5.6,10.9-5.6
		c7.2,0,12.6,4.8,12.6,15.1v20.9H42.5V31c0-4.5-1.6-7.6-5.5-7.6c-3,0-4.8,2.1-5.5,4.1c-0.3,0.6-0.4,1.7-0.4,2.7v20.3H20V26.6z"/>
</g>
</svg>
