<?xml version="1.0" encoding="utf-8"?>
<!-- Generator: Adobe Illustrator 19.0.0, SVG Export Plug-In . SVG Version: 6.00 Build 0)  -->
<svg version="1.1" id="Layer_1" xmlns="http://www.w3.org/2000/svg" xmlns:xlink="http://www.w3.org/1999/xlink" x="0px" y="0px"
	 viewBox="0 0 605.9 265.4" style="enable-background:new 0 0 605.9 265.4;" xml:space="preserve">
<style type="text/css">
	.st0{display:none;fill:#21457A;stroke:#000000;stroke-miterlimit:10;}
	.st1{fill:#FFFFFF;stroke:#FFFFFF;stroke-width:3;stroke-miterlimit:10;}
</style>
<rect id="XMLID_1_" x="-208" y="-246.4" class="st0" width="1024" height="768"/>
<g id="XMLID_3_">
	<path id="XMLID_4_" class="st1" d="M12.3,60.4C8,59.2,4.5,57.5,1.9,55.5l4.6-10.2c2.5,1.8,5.5,3.3,9,4.5c3.5,1.1,6.9,1.7,10.4,1.7
		c3.9,0,6.7-0.6,8.6-1.7c1.8-1.1,2.8-2.7,2.8-4.6c0-1.4-0.5-2.6-1.6-3.5c-1.1-0.9-2.5-1.7-4.2-2.2c-1.7-0.6-4-1.2-6.9-1.8
		c-4.5-1.1-8.1-2.1-11-3.2c-2.9-1.1-5.3-2.8-7.3-5.1c-2-2.4-3.1-5.5-3.1-9.4c0-3.4,0.9-6.5,2.8-9.3c1.8-2.8,4.6-5,8.4-6.6
		c3.7-1.6,8.3-2.4,13.6-2.4c3.8,0,7.4,0.4,11,1.3c3.6,0.9,6.7,2.2,9.4,3.9L44,17c-5.4-3.1-10.9-4.6-16.3-4.6c-3.8,0-6.6,0.6-8.4,1.8
		c-1.8,1.2-2.7,2.9-2.7,4.9s1.1,3.5,3.2,4.5c2.1,1,5.3,1.9,9.6,2.9c4.5,1.1,8.1,2.1,11,3.2c2.9,1.1,5.3,2.7,7.3,5
		c2,2.3,3.1,5.4,3.1,9.3c0,3.4-0.9,6.4-2.8,9.2c-1.9,2.8-4.7,5-8.4,6.6c-3.8,1.6-8.3,2.4-13.7,2.4C21.1,62.3,16.7,61.7,12.3,60.4z"
		/>
	<path id="XMLID_6_" class="st1" d="M71.4,13.6H52.6V2.5h51.2v11.1H85v47.7H71.4V13.6z"/>
	<path id="XMLID_8_" class="st1" d="M148.6,61.3l-11.3-16.4h-0.7h-11.8v16.4h-13.6V2.5h25.5c5.2,0,9.7,0.9,13.6,2.6
		c3.8,1.7,6.8,4.2,8.9,7.4c2.1,3.2,3.1,7,3.1,11.3c0,4.4-1,8.1-3.1,11.3c-2.1,3.2-5.1,5.6-8.9,7.3l13.2,18.9H148.6z M145.2,16.2
		c-2.1-1.8-5.2-2.6-9.3-2.6h-11.1v20.5h11.1c4.1,0,7.2-0.9,9.3-2.7c2.1-1.8,3.2-4.3,3.2-7.6C148.4,20.5,147.3,18,145.2,16.2z"/>
	<path id="XMLID_11_" class="st1" d="M211.6,48.7h-27.3l-5.2,12.6h-13.9l26.2-58.8h13.4l26.3,58.8h-14.3L211.6,48.7z M207.3,38.4
		L198,15.9l-9.3,22.5H207.3z"/>
	<path id="XMLID_14_" class="st1" d="M291.1,2.5v58.8H280l-29.3-35.7v35.7h-13.4V2.5h11.3l29.2,35.7V2.5H291.1z"/>
	<path id="XMLID_16_" class="st1" d="M305.1,2.5h13.6v58.8h-13.6V2.5z"/>
	<path id="XMLID_18_" class="st1" d="M344.5,58.4c-4.8-2.6-8.7-6.2-11.4-10.8c-2.8-4.6-4.2-9.8-4.2-15.7c0-5.8,1.4-11,4.2-15.7
		c2.8-4.6,6.6-8.2,11.4-10.8c4.8-2.6,10.3-3.9,16.3-3.9c5.1,0,9.7,0.9,13.8,2.7c4.1,1.8,7.6,4.4,10.4,7.7l-8.7,8.1
		c-4-4.6-8.9-6.9-14.8-6.9c-3.6,0-6.9,0.8-9.7,2.4c-2.9,1.6-5.1,3.8-6.7,6.7s-2.4,6.1-2.4,9.7c0,3.6,0.8,6.9,2.4,9.7
		c1.6,2.9,3.8,5.1,6.7,6.7c2.9,1.6,6.1,2.4,9.7,2.4c5.9,0,10.8-2.3,14.8-7l8.7,8.1c-2.8,3.4-6.3,6-10.4,7.8
		c-4.1,1.8-8.8,2.7-13.9,2.7C354.8,62.3,349.4,61,344.5,58.4z"/>
	<path id="XMLID_20_" class="st1" d="M439.7,50.4v10.9h-45.5V2.5h44.4v10.9h-30.9v12.8H435v10.6h-27.3v13.6H439.7z"/>
	<path id="XMLID_22_" class="st1" d="M43.9,162.1l-11.3-16.4h-0.7H20.1v16.4H6.5v-58.8h25.5c5.2,0,9.7,0.9,13.6,2.6
		c3.8,1.7,6.8,4.2,8.9,7.4c2.1,3.2,3.1,7,3.1,11.3c0,4.4-1,8.1-3.1,11.3c-2.1,3.2-5.1,5.6-8.9,7.3l13.2,18.9H43.9z M40.5,117
		c-2.1-1.8-5.2-2.6-9.3-2.6H20.1v20.5h11.1c4.1,0,7.2-0.9,9.3-2.7c2.1-1.8,3.2-4.3,3.2-7.6C43.7,121.3,42.6,118.8,40.5,117z"/>
	<path id="XMLID_25_" class="st1" d="M106.9,149.5H79.6l-5.2,12.6H60.5l26.2-58.8h13.4l26.3,58.8h-14.3L106.9,149.5z M102.7,139.2
		l-9.3-22.5L84,139.2H102.7z"/>
	<path id="XMLID_28_" class="st1" d="M125.7,127.7H162v9.1h-36.3V127.7z M133.7,103.3h26.7c6.4,0,12,1.2,16.9,3.7
		c4.9,2.4,8.7,5.9,11.4,10.3c2.7,4.4,4.1,9.6,4.1,15.5s-1.4,11-4.1,15.5c-2.7,4.4-6.5,7.9-11.4,10.3c-4.9,2.4-10.5,3.7-16.9,3.7
		h-26.7V103.3z M159.7,150.9c5.9,0,10.6-1.6,14.1-4.9c3.5-3.3,5.3-7.7,5.3-13.3c0-5.6-1.8-10-5.3-13.3c-3.5-3.3-8.2-4.9-14.1-4.9
		h-12.4v36.5H159.7z"/>
	<path id="XMLID_32_" class="st1" d="M248.6,151.2v10.9H203v-58.8h44.4v10.9h-30.9V127h27.3v10.6h-27.3v13.6H248.6z"/>
	<path id="XMLID_34_" class="st1" d="M313.3,103.3v58.8h-11.2l-29.3-35.7v35.7h-13.4v-58.8h11.3l29.2,35.7v-35.7H313.3z"/>
	<path id="XMLID_36_" class="st1" d="M372.8,151.2v10.9h-45.5v-58.8h44.4v10.9h-30.9V127h27.3v10.6h-27.3v13.6H372.8z"/>
	<path id="XMLID_38_" class="st1" d="M461.3,103.3v58.8h-11.2l-29.3-35.7v35.7h-13.4v-58.8h11.3l29.2,35.7v-35.7H461.3z"/>
	<path id="XMLID_40_" class="st1" d="M514,149.5h-27.3l-5.2,12.6h-13.9l26.2-58.8h13.4l26.3,58.8h-14.3L514,149.5z M509.7,139.2
		l-9.3-22.5l-9.3,22.5H509.7z"/>
	<path id="XMLID_43_" class="st1" d="M45.5,206.7c3.8,1.7,6.8,4.2,8.9,7.4c2.1,3.2,3.1,7,3.1,11.3c0,4.3-1,8.1-3.1,11.3
		c-2.1,3.2-5,5.7-8.9,7.4c-3.8,1.7-8.4,2.6-13.6,2.6H20.1v16.2H6.5v-58.8h25.5C37.1,204.1,41.7,205,45.5,206.7z M40.5,233
		c2.1-1.8,3.2-4.3,3.2-7.5c0-3.3-1.1-5.8-3.2-7.6c-2.1-1.8-5.2-2.6-9.3-2.6H20.1v20.4h11.1C35.3,235.6,38.4,234.7,40.5,233z"/>
	<path id="XMLID_46_" class="st1" d="M104.6,262.9l-11.3-16.4h-0.7H80.7v16.4H67.1v-58.8h25.5c5.2,0,9.7,0.9,13.6,2.6
		c3.8,1.7,6.8,4.2,8.9,7.4c2.1,3.2,3.1,7,3.1,11.3s-1,8.1-3.1,11.3c-2.1,3.2-5.1,5.6-8.9,7.3l13.2,18.9H104.6z M101.1,217.8
		c-2.1-1.8-5.2-2.6-9.3-2.6H80.7v20.5h11.1c4.1,0,7.2-0.9,9.3-2.7c2.1-1.8,3.2-4.3,3.2-7.6C104.3,222.1,103.3,219.6,101.1,217.8z"/>
	<path id="XMLID_49_" class="st1" d="M167.6,250.3h-27.3l-5.2,12.6h-13.9l26.2-58.8h13.4l26.3,58.8h-14.3L167.6,250.3z M163.3,240
		l-9.3-22.5l-9.3,22.5H163.3z"/>
	<path id="XMLID_52_" class="st1" d="M246.5,204.1l-25.5,58.8h-13.4l-25.4-58.8H197l17.9,42l18.1-42H246.5z"/>
	<path id="XMLID_54_" class="st1" d="M251.4,204.1H265v58.8h-13.6V204.1z"/>
	<path id="XMLID_56_" class="st1" d="M356.7,204.1v58.8h-11.2l-29.3-35.7v35.7h-13.4v-58.8H314l29.2,35.7v-35.7H356.7z"/>
	<path id="XMLID_58_" class="st1" d="M409.3,250.3H382l-5.2,12.6h-13.9l26.2-58.8h13.4l26.3,58.8h-14.3L409.3,250.3z M405.1,240
		l-9.3-22.5l-9.3,22.5H405.1z"/>
	<path id="XMLID_61_" class="st1" d="M446,260c-4.8-2.6-8.7-6.2-11.4-10.8c-2.8-4.6-4.2-9.8-4.2-15.7s1.4-11,4.2-15.7
		c2.8-4.6,6.6-8.2,11.4-10.8c4.8-2.6,10.3-3.9,16.3-3.9c5.1,0,9.7,0.9,13.8,2.7c4.1,1.8,7.6,4.4,10.4,7.7l-8.7,8.1
		c-4-4.6-8.9-6.9-14.8-6.9c-3.6,0-6.9,0.8-9.7,2.4c-2.9,1.6-5.1,3.8-6.7,6.7c-1.6,2.9-2.4,6.1-2.4,9.7c0,3.6,0.8,6.9,2.4,9.7
		c1.6,2.9,3.8,5.1,6.7,6.7c2.9,1.6,6.1,2.4,9.7,2.4c5.9,0,10.8-2.3,14.8-7l8.7,8.1c-2.8,3.4-6.3,6-10.4,7.8
		c-4.1,1.8-8.8,2.7-13.9,2.7C456.3,263.9,450.8,262.6,446,260z M478.8,187.2l-11.1,12.1h-11.6L445,187.2h9.6l7.3,6.3l7.3-6.3H478.8z
		"/>
	<path id="XMLID_64_" class="st1" d="M495.7,204.1h13.6v58.8h-13.6V204.1z"/>
	<path id="XMLID_66_" class="st1" d="M577.2,204.1v58.8H566l-29.3-35.7v35.7h-13.4v-58.8h11.3l29.2,35.7v-35.7H577.2z"/>
	<path id="XMLID_68_" class="st1" d="M590.6,261.4c-1.5-1.5-2.3-3.3-2.3-5.4c0-2.1,0.8-3.9,2.3-5.3c1.5-1.4,3.4-2.1,5.8-2.1
		c2.4,0,4.3,0.7,5.8,2.1c1.5,1.4,2.3,3.2,2.3,5.3c0,2.1-0.8,3.9-2.3,5.4c-1.5,1.5-3.5,2.2-5.8,2.2
		C594,263.6,592.1,262.8,590.6,261.4z M588.5,204.1h15.6l-2.6,38.4h-10.4L588.5,204.1z"/>
</g>
</svg>
