<?xml version="1.0" encoding="utf-8"?>
<!-- Generator: Adobe Illustrator 19.0.0, SVG Export Plug-In . SVG Version: 6.00 Build 0)  -->
<svg version="1.1" id="Layer_1" xmlns="http://www.w3.org/2000/svg" xmlns:xlink="http://www.w3.org/1999/xlink" x="0px" y="0px"
	 viewBox="0 0 456.5 455.3" style="enable-background:new 0 0 456.5 455.3;" xml:space="preserve">
<style type="text/css">
	.st0{fill:#ffffff;}
</style>
<path id="XMLID_5_" class="st0" d="M423.4,2.8l-412.3,238c-0.2,0.1-0.4,0.3-0.6,0.4c-2.7,2.1-19.9,16.4-3.4,33.7
	c2,2.1,4.5,3.8,7.1,4.9l90,38.9c2,0.9,4.4,0.5,6.1-1L362.3,94.5c0.6-0.6,1.4-1,2.2-1.2c2.2-0.6,6.3-1.3,7.8,2.1
	c0.8,1.9,0.3,4-0.9,5.6L158.5,360.4c-0.8,1-1.3,2.3-1.3,3.6v70.1c0,0.2,0,0.4,0,0.6c0.4,3.5,4.5,32.7,38.3,14.9
	c0.7-0.4,1.3-0.9,1.8-1.5l52.3-66c1.6-2,4.4-2.7,6.8-1.7l105,45.5c0.2,0.1,0.5,0.2,0.7,0.3c3.3,0.9,26.1,6.4,29.8-17.5l64.5-382.9
	c0-0.2,0.1-0.5,0.1-0.7c0.1-3.8,0.2-33.3-32-22.8C424.1,2.4,423.8,2.6,423.4,2.8z"/>
</svg>
